# xmcd
#
# Track frame offsets:
# 182
# 12575
# 24202
# 35757
# 51947
# 66692
# 83910
# 102702
# 120137
# 134322
# 150045
# 169687
#
# Disc length: 2606 seconds
#
#
# Revision: 0
# Processed by: cddbd v1.5.1PL0 Copyright (c) Steve Scherf et al.
# Submitted via: FreeRIP 2.93 
#
DISCID=970a2c0c
DTITLE=Solomon Burke - The Best of Solomon Burke
DYEAR=1996
DGENRE=R&B
TTITLE0=Just Out of Reach (of My Two Empty Arms)
TTITLE1=Cry to Me
TTITLE2=If You Need Me
TTITLE3=I Have a Dream
TTITLE4=Looking For a Sign
TTITLE5=All For The Love of Sunshine
TTITLE6=Now is The Time
TTITLE7=We Can Be Together Again
TTITLE8=I Got You
TTITLE9=Social Change
TTITLE10=Mountain Top
TTITLE11=Precious Lord, Take My Hand/We Shall Overcome
EXTD=
EXTT0=
EXTT1=
EXTT2=
EXTT3=
EXTT4=
EXTT5=
EXTT6=
EXTT7=
EXTT8=
EXTT9=
EXTT10=
EXTT11=
PLAYORDER=
